<svg width="13" height="13" viewBox="0 0 13 13" fill="none" xmlns="http://www.w3.org/2000/svg">
<path d="M9.46436 3.77686L10.0356 4.34814L5.28125 9.10254L2.96436 6.78564L3.53564 6.21436L5.28125 7.95996L9.46436 3.77686ZM6.5 0C7.09668 0 7.6722 0.0782878 8.22656 0.234863C8.78092 0.387207 9.29932 0.605143 9.78174 0.888672C10.2642 1.16797 10.7021 1.50651 11.0957 1.9043C11.4935 2.29785 11.832 2.73584 12.1113 3.21826C12.3949 3.70068 12.6128 4.21908 12.7651 4.77344C12.9217 5.3278 13 5.90332 13 6.5C13 7.09668 12.9217 7.6722 12.7651 8.22656C12.6128 8.78092 12.3949 9.29932 12.1113 9.78174C11.832 10.2642 11.4935 10.7043 11.0957 11.1021C10.7021 11.4956 10.2642 11.8341 9.78174 12.1177C9.29932 12.397 8.78092 12.6149 8.22656 12.7715C7.6722 12.9238 7.09668 13 6.5 13C5.90332 13 5.3278 12.9238 4.77344 12.7715C4.21908 12.6149 3.70068 12.397 3.21826 12.1177C2.73584 11.8341 2.29574 11.4956 1.89795 11.1021C1.50439 10.7043 1.16585 10.2642 0.882324 9.78174C0.603027 9.29932 0.385091 8.78304 0.228516 8.23291C0.0761719 7.67855 0 7.10091 0 6.5C0 5.90332 0.0761719 5.3278 0.228516 4.77344C0.385091 4.21908 0.603027 3.70068 0.882324 3.21826C1.16585 2.73584 1.50439 2.29785 1.89795 1.9043C2.29574 1.50651 2.73584 1.16797 3.21826 0.888672C3.70068 0.605143 4.21696 0.387207 4.76709 0.234863C5.32145 0.0782878 5.89909 0 6.5 0ZM6.5 12.1875C7.02051 12.1875 7.52197 12.1198 8.00439 11.9844C8.49105 11.849 8.94385 11.6585 9.36279 11.4131C9.78597 11.1634 10.1711 10.8651 10.5181 10.5181C10.8651 10.1711 11.1613 9.78809 11.4067 9.36914C11.6564 8.94596 11.849 8.49316 11.9844 8.01074C12.1198 7.52832 12.1875 7.02474 12.1875 6.5C12.1875 5.97949 12.1198 5.47803 11.9844 4.99561C11.849 4.50895 11.6564 4.05615 11.4067 3.63721C11.1613 3.21403 10.8651 2.82894 10.5181 2.48193C10.1711 2.13493 9.78597 1.8387 9.36279 1.59326C8.94385 1.34359 8.49105 1.15104 8.00439 1.01562C7.52197 0.880208 7.02051 0.8125 6.5 0.8125C5.97949 0.8125 5.47591 0.880208 4.98926 1.01562C4.50684 1.15104 4.05404 1.34359 3.63086 1.59326C3.21191 1.8387 2.82894 2.13493 2.48193 2.48193C2.13493 2.82894 1.83659 3.21403 1.58691 3.63721C1.34147 4.05615 1.15104 4.50895 1.01562 4.99561C0.880208 5.47803 0.8125 5.97949 0.8125 6.5C0.8125 7.02051 0.880208 7.52409 1.01562 8.01074C1.15104 8.49316 1.34147 8.94596 1.58691 9.36914C1.83659 9.78809 2.13493 10.1711 2.48193 10.5181C2.82894 10.8651 3.21191 11.1634 3.63086 11.4131C4.05404 11.6585 4.50684 11.849 4.98926 11.9844C5.47168 12.1198 5.97526 12.1875 6.5 12.1875Z" fill="#107C10"/>
</svg>
